<?xml version="1.0" standalone="no"?>
<!DOCTYPE svg PUBLIC "-//W3C//DTD SVG 20010904//EN"
 "http://www.w3.org/TR/2001/REC-SVG-20010904/DTD/svg10.dtd">
<svg version="1.0" xmlns="http://www.w3.org/2000/svg"
 width="300.000000pt" height="300.000000pt" viewBox="0 0 300.000000 300.000000"
 preserveAspectRatio="xMidYMid meet">
<metadata>
Created by potrace 1.11, written by Peter Selinger 2001-2013
</metadata>
<g transform="translate(0.000000,300.000000) scale(0.100000,-0.100000)"
fill="#000000" stroke="none">
<path d="M1200 2983 c-19 -8 -1030 -1018 -1029 -1029 0 -5 44 -46 97 -91 53
-46 108 -93 122 -105 14 -13 64 -57 111 -98 47 -41 114 -99 148 -129 70 -62
78 -68 151 -131 29 -25 65 -56 80 -70 15 -14 43 -38 61 -54 89 -77 110 -95
168 -146 35 -30 76 -66 91 -80 15 -14 51 -45 81 -70 29 -25 65 -56 80 -70 15
-14 50 -45 79 -70 29 -25 58 -49 64 -55 6 -5 45 -39 86 -75 41 -36 77 -67 80
-70 5 -5 130 -114 184 -160 16 -14 34 -29 40 -35 6 -5 47 -41 91 -80 44 -38
82 -72 85 -75 3 -3 34 -30 70 -60 36 -30 67 -58 70 -61 28 -32 173 -150 178
-144 4 3 7 275 8 603 1 328 2 599 3 603 0 3 107 5 236 5 227 -1 235 0 256 21
17 16 20 28 15 50 -5 19 -127 148 -375 398 l-367 370 2 305 c1 168 -3 319 -8
337 -5 19 -18 35 -31 39 -30 10 -389 11 -426 1 -35 -9 -48 -41 -46 -114 1 -23
-1 -43 -5 -43 -4 0 -94 84 -200 187 -105 104 -197 191 -203 195 -14 9 -26 9
-47 1z"/>
<path d="M165 1380 c-84 -34 -98 -165 -22 -214 87 -57 206 9 193 107 -7 51
-21 75 -59 97 -33 21 -78 25 -112 10z"/>
<path d="M530 1225 c0 -61 -1 -309 -3 -553 -1 -289 1 -442 8 -443 6 0 27 -2
47 -3 l37 -2 1 435 c0 239 1 436 3 437 2 2 23 -15 47 -37 25 -23 63 -57 85
-77 22 -19 65 -58 96 -86 126 -116 149 -136 254 -232 61 -54 115 -103 121
-109 62 -57 174 -158 191 -172 22 -20 178 -162 257 -235 l51 -46 -733 0 -732
-1 -1 27 c-1 15 -2 218 -3 452 l-1 425 -44 0 -45 0 -1 -485 c0 -267 1 -491 3
-497 3 -10 189 -13 886 -13 l881 0 -72 68 c-39 37 -126 119 -194 182 -67 63
-143 135 -169 160 -26 25 -105 99 -175 165 -142 132 -155 144 -277 260 -88 84
-335 316 -397 374 -20 18 -55 52 -78 74 l-43 41 0 -109z"/>
</g>
</svg>
